<?xml version="1.0" encoding="utf-8"?>
<!-- Generator: Adobe Illustrator 16.0.0, SVG Export Plug-In . SVG Version: 6.00 Build 0)  -->
<!DOCTYPE svg PUBLIC "-//W3C//DTD SVG 1.1//EN" "http://www.w3.org/Graphics/SVG/1.1/DTD/svg11.dtd">
<svg version="1.1" id="Layer_1" xmlns="http://www.w3.org/2000/svg" xmlns:xlink="http://www.w3.org/1999/xlink" x="0px" y="0px"
	 width="1190.55px" height="841.89px" viewBox="0 0 1190.55 841.89" enable-background="new 0 0 1190.55 841.89"
	 xml:space="preserve">
<g>
	<path fill-rule="evenodd" clip-rule="evenodd" fill="#333333" d="M806.991,279.322c0,8.937-4.313,29.041-7.42,34.542
		c-1.293,2.318-2.847,3.264-4.832,5.669c-1.898,2.406-2.935,3.781-4.573,5.842c-3.191,4.125-6.73,7.646-10.094,12.028
		c-3.452,4.21-6.127,7.217-9.578,11.343l-28.989,35.055c-13.634,14.864-21.485,3.781-14.495-6.014l38.048-46.999
		c6.646-8.332,15.619-17.871,15.619-29.47c0-7.129-6.042-8.42-11.563-8.42c-12.854,0-43.14,41.499-53.406,51.638
		c-15.788,15.549-11.216,14.948-33.906,24.915c-35.98,15.637-48.145,16.411-68.509,50.175
		c-8.108,13.492-25.105,48.631-25.105,69.165V609.25h110.436c-0.084-4.552-8.801-32.048-10.955-41.502
		c-3.107-13.569-6.991-29.642-6.991-45.446c0-12.89,7.939-16.756,19.415-25.692c8.801-6.873,16.478-13.06,25.106-20.017
		c4.4-3.523,8.196-6.531,12.34-9.795l38.479-30.845c32.613-25.605,27.437-31.704,44.262-68.992
		c3.366-7.477,19.327-44.421,19.327-49.918l-7.075-61.089c-1.382-10.569-2.33-19.935-3.451-30.071
		c-1.034-8.765-1.382-24.057-10.527-24.057c-8.023,0-11.388,3.18-13.113,9.967C800.952,229.491,806.991,260.249,806.991,279.322
		L806.991,279.322z"/>
	<path fill-rule="evenodd" clip-rule="evenodd" fill="#333333" d="M470.328,519.207c0,25.947-5.177,46.312-12.252,70.537
		c-1.554,5.332-5.262,15.039-5.609,19.506c30.114,0,60.312,0,90.422,0c25.366,0,20.881,5.501,21.053-24.057
		c0.084-8.681-1.037-13.147-1.037-21.996v-40.896c0-35.917,3.968-46.742-15.444-85.146c-6.213-12.373-10.871-22.08-19.155-32.304
		c-19.412-24.145-36.754-24.317-64.622-38.235c-6.126-3.095-11.043-4.983-15.703-9.538c-13.718-13.231-20.017-22.51-30.543-33.508
		l-12.08-14.177c-4.917-5.068-15.876-16.495-23.383-16.495c-13.286,0-14.579,11.771-6.815,22.509
		c14.583,19.935,23.039,29.643,37.446,47.513c5.521,6.875,14.582,15.468,14.582,22.168c0,3.264-4.4,6.443-7.767,5.757
		c-7.504-1.632-31.664-33.768-37.703-41.157l-28.04-33.849c-8.284-10.741-10.182-37.461-8.197-51.983
		c1.811-13.833,1.811-25.602,1.811-40.036c0-28.267-18.206-24.918-22.002-15.637c-1.982,4.724-10.956,88.065-12.165,96.83
		c-1.638,11.856-1.638,14.948,2.59,24.571l27.781,66.586c3.624,9.194,4.573,12.89,10.871,19.59
		c12.941,13.749,9.922,10.741,24.589,22.597l86.799,69.678C468.774,510.614,470.328,514.051,470.328,519.207L470.328,519.207z"/>
	<path fill-rule="evenodd" clip-rule="evenodd" fill="#333333" d="M479.817,237.394c0,12.89,0.604,20.793,6.731,31.018
		c4.657,7.734,8.368,13.488,13.201,20.364c9.058,12.715,19.671,30.328,37.875,30.328c11.823,0,24.248-12.887,24.248-20.965
		c0-7.302-3.107-15.637-5.265-20.962c-10.611-26.206-2.158-29.385-2.158-50.263c0-17.012-11.476-29.298-28.385-29.298
		C500.526,197.615,479.817,209.644,479.817,237.394L479.817,237.394z"/>
	<path fill-rule="evenodd" clip-rule="evenodd" fill="#333333" d="M592.327,198.646c0,7.818,4.056,16.924,6.471,22.854
		c10.698,26.463,4.056,25.689,4.056,51.551c0,20.877,37.617,33.166,51.424-1.203c10.955-27.149,23.123-44.85,13.718-74.147
		c-10.614-33.079-48.577-32.305-65.658-19.417C597.504,181.978,592.327,190.743,592.327,198.646L592.327,198.646z"/>
	<path fill-rule="evenodd" clip-rule="evenodd" fill="#333333" d="M583.958,145.205c0,23.283,21.31,26.806,28.473,16.84
		c9.75-13.576-0.432-33.594-14.842-33.594C589.652,128.451,583.958,137.042,583.958,145.205L583.958,145.205z"/>
	<path fill-rule="evenodd" clip-rule="evenodd" fill="#333333" d="M518.729,168.23c0,32.477,31.58,25.26,31.58,3.179
		C550.309,144.518,518.729,145.634,518.729,168.23L518.729,168.23z"/>
	<path fill-rule="evenodd" clip-rule="evenodd" fill="#333333" d="M622.869,149.415c0,16.754,21.054,19.16,21.054-2.063
		C643.923,132.746,622.869,133.263,622.869,149.415L622.869,149.415z"/>
	<path fill-rule="evenodd" clip-rule="evenodd" fill="#333333" d="M491.381,176.65c0,21.479,21.05,19.675,21.05,7.305
		C512.431,161.443,491.381,164.537,491.381,176.65L491.381,176.65z"/>
	<path fill-rule="evenodd" clip-rule="evenodd" fill="#333333" d="M647.029,158.866c0,10.224,16.825,13.145,16.825-3.18
		C663.854,142.97,647.029,145.291,647.029,158.866L647.029,158.866z"/>
	<path fill-rule="evenodd" clip-rule="evenodd" fill="#333333" d="M473.519,191.344c0,9.535,16.825,20.962,16.825,0
		C490.344,183.181,473.519,178.111,473.519,191.344L473.519,191.344z"/>
	<path fill-rule="evenodd" clip-rule="evenodd" fill="#333333" d="M462.993,207.066c0,16.583,14.667,12.887,14.667,5.156
		C477.66,199.677,462.993,199.332,462.993,207.066L462.993,207.066z"/>
	<path fill-rule="evenodd" clip-rule="evenodd" fill="#333333" d="M670.237,179.83c11.131,0,10.786-16.84,2.07-16.84
		C661.869,162.989,662.646,179.83,670.237,179.83L670.237,179.83z"/>
	<path fill-rule="evenodd" clip-rule="evenodd" fill="#333333" d="M466.1,235.333c6.903,0,8.713-14.691-4.141-14.691
		C453.935,220.642,456.178,235.333,466.1,235.333L466.1,235.333z"/>
	<path fill-rule="evenodd" clip-rule="evenodd" fill="#333333" d="M674.378,189.195c0,6.359,13.721,9.451,13.721-5.241
		C688.099,177.167,674.378,178.111,674.378,189.195L674.378,189.195z"/>
</g>
</svg>
