<?xml version="1.0" encoding="utf-8"?>
<!-- Generator: Adobe Illustrator 16.0.0, SVG Export Plug-In . SVG Version: 6.00 Build 0)  -->
<!DOCTYPE svg PUBLIC "-//W3C//DTD SVG 1.1//EN" "http://www.w3.org/Graphics/SVG/1.1/DTD/svg11.dtd">
<svg version="1.1" id="Layer_1" xmlns="http://www.w3.org/2000/svg" xmlns:xlink="http://www.w3.org/1999/xlink" x="0px" y="0px"
	 width="1190.55px" height="841.89px" viewBox="0 0 1190.55 841.89" enable-background="new 0 0 1190.55 841.89"
	 xml:space="preserve">
<g>
	<path fill-rule="evenodd" clip-rule="evenodd" fill="#333333" d="M474.165,411.709c-8.065,3.084-8.228,0.813-9.366,11.518
		c-31.929,19.792-20.608,35.689-26.716,73.161c-4.725,28.873-18.733,52.718-36.816,63.993c1.304,3.247,2.2,4.058,7.087,7.464
		c34.454,24.091,90.328,26.682,129.666,14.031c10.1-3.327,33.721-13.301,36.166-21.09c-4.725-5.027-9.366-7.623-14.417-13.221
		c-3.178-3.566-8.228-10.865-10.996-16.544c-25.087-50.936-0.246-84.839-33.313-104.956c-6.599-3.975-2.69-2.188-5.132-8.759
		c-2.037-5.435-5.05-3.569-8.554-6.245c-1.709-40.716-0.163-104.874-0.08-149.646c0-15.33,3.667-36.337-13.846-36.5
		c-17.675-0.08-13.684,21.252-13.684,36.5V411.709z"/>
	<path fill-rule="evenodd" clip-rule="evenodd" fill="#333333" d="M675.508,550.081c0.736-4.622-5.13-7.788-8.143-10.87
		l-29.079-29.521c-3.422-5.272-2.852-10.95,0.571-15.088l28.913-28.63c-0.246-0.325-0.491-0.973-0.491-1.136l-1.056-1.783
		c-5.215-4.947-30.464-17.684-47.322-40.148c-1.304-1.703-1.629-2.271-2.933-3.569l-3.176-2.434
		c-5.05-1.135-7.982-5.598-12.137-9.814l-28.263-28.063c-2.037-2.029-3.341-3.327-5.375-5.355l-34.128-33.983
		c-8.879-8.921-5.946-8.194-14.987-8.194c-1.709,5.355-0.571,39.096-0.571,47.774c0,31.958-1.709,15.167,6.762,30.739
		c2.442,4.382,1.792,4.22,5.455,7.301c27.45,23.44,16.779,38.933,23.295,75.675c5.783,32.442,16.616,46.149,38.608,60.261
		c8.226,5.358,6.434,5.438,19.059,5.193C626.394,558.189,664.353,556.569,675.508,550.081L675.508,550.081z"/>
	<path fill-rule="evenodd" clip-rule="evenodd" fill="#333333" d="M517.903,331.492c9.042,0,6.108-0.728,14.987,8.194l34.128,33.983
		c2.034,2.029,3.338,3.327,5.375,5.355l28.263,28.063c4.154,4.217,7.087,8.679,12.137,9.814
		c-2.282-6.245-10.916-14.519-14.174-21.737l19.387,18.006c16.208,15.572,48.464,38.365,69.805,45.258
		c58.642,18.981,56.034-30.171,40.233-65.777c-0.896-2.108-2.117-4.625-2.933-6.328l-2.282-4.379
		c-1.222-1.703-0.571-0.81-1.792-2.028c-6.105,39.175-2.362,16.79,0.815,43.475c3.504,29.038-21.255,21.817-25.329,19.546
		c0.245-8.921,3.258-27.657,4.885-36.742l6.517-46.636c0.815-5.84,0.085-3.974,2.853-7.869
		c25.084-34.228-136.104-29.198-156.141-27.01C549.344,325.25,521.894,327.275,517.903,331.492L517.903,331.492z"/>
	<path fill-rule="evenodd" clip-rule="evenodd" fill="#FFFFFF" d="M426.924,559.736c4.559,4.542,23.212,9.323,29.158,10.459
		c11.483,2.271,24.762,4.137,37.059,3.247c-0.733-10.22-6.434-48.182,2.2-57.588c2.117,4.705,3.666,22.467,5.783,29.525
		c3.178,10.864,7.658,17.352,10.916,25.386l10.505-0.976c-2.28-12.165-8.309-15.167-8.309-36.902
		c3.258,2.026,2.037,0.731,4.154,4.948c1.059,2.271,1.549,3.486,2.933,5.678c1.792,2.916,4.479,6.813,7.004,9.895
		c1.874,2.351,5.945,7.053,8.308,8.839c1.954,1.461,2.85,1.945,5.946,1.136l6.271-3.646c-4.805-9.005-10.18-10.79-18.163-30.013
		c-15.963-38.445-7.087-67.159-14.825-80.622c-7.738-13.706-15.638-13.384-34.371-13.301h-1.058
		c-12.38,0.162-21.096,9.974-23.133,20.193c-4.642,23.036,2.2,54.183-21.096,90.601
		C433.033,551.542,429.449,554.869,426.924,559.736L426.924,559.736z"/>
	<path fill-rule="evenodd" clip-rule="evenodd" fill="#333333" d="M650.994,254.602c-35.434,8.031-22.809,59.535,10.996,52.559
		C696.278,300.105,686.344,246.573,650.994,254.602L650.994,254.602z"/>
	<path fill-rule="evenodd" clip-rule="evenodd" fill="#333333" d="M686.442,496.003l3.749-23.36l-14.334-4.785l-10.511-4.137
		l-22.851,21.593c-2.688,2.514-9.143,11.707-8.571,17.143c0.325,3.081,3.437,16.546,5.714,18.571c6.356,5.678,8.514,5.628,20,17.144
		c14.796,15.109,13.797,10.821,25.715,8.571C682.066,547.362,676.124,504.735,686.442,496.003L686.442,496.003z"/>
	<path fill-rule="evenodd" clip-rule="evenodd" fill="#333333" d="M564.898,260.2c-26.146,6.568-13.521,43.067,9.857,35.606
		C596.502,288.913,588.682,254.276,564.898,260.2L564.898,260.2z"/>
	<path fill-rule="evenodd" clip-rule="evenodd" fill="#333333" d="M579.398,170.736c-13.521,6.246-3.341,26.117,9.774,19.546
		C601.472,184.12,593.489,164.328,579.398,170.736L579.398,170.736z"/>
	<path fill-rule="evenodd" clip-rule="evenodd" fill="#333333" d="M637.552,129.694c-14.254,5.678-7.654,24.577,6.681,20.927
		C657.75,147.132,650.908,124.342,637.552,129.694L637.552,129.694z"/>
	<path fill-rule="evenodd" clip-rule="evenodd" fill="#333333" d="M618.248,208.288c-15.88,5.678-6.434,25.227,6.6,20.765
		C636.981,224.999,631.852,203.423,618.248,208.288L618.248,208.288z"/>
</g>
</svg>
