<?xml version="1.0" encoding="utf-8"?>
<!-- Generator: Adobe Illustrator 16.0.0, SVG Export Plug-In . SVG Version: 6.00 Build 0)  -->
<!DOCTYPE svg PUBLIC "-//W3C//DTD SVG 1.1//EN" "http://www.w3.org/Graphics/SVG/1.1/DTD/svg11.dtd">
<svg version="1.1" id="Layer_1" xmlns="http://www.w3.org/2000/svg" xmlns:xlink="http://www.w3.org/1999/xlink" x="0px" y="0px"
	 width="1190.55px" height="841.89px" viewBox="0 0 1190.55 841.89" enable-background="new 0 0 1190.55 841.89"
	 xml:space="preserve">
<g>
	<path fill-rule="evenodd" clip-rule="evenodd" fill="#333333" d="M729.15,466.039c-31.549,5.729-40.99-6.178-69.303-5.639
		c-42.605,0.895-46.832,30.882-105.169,32.042c-7.009,0.094-10.066-2.684-15.731-4.561c-21.392-7.166-55.101-4.119-58.785,15.75
		c10.517,4.207,27.145,12.619,38.562,18.621c39.909,20.857,53.575,3.129,122.876,20.674l21.123,7.967
		c-15.279,0.182-29.121-3.131-42.516-6.084c-31.282-6.801-65.617,0.266-88.452-8.324c-16.719-6.266-14.738-10.115-36.404-12.174
		c-47.28-4.477-38.111-3.223-73.168-23.811c-20.674-12.084-53.662-22.109-70.29,0.09l88.54,56.838
		c16.357,9.131,18.605,8.414,34.157,14.68c15.459,6.266,31.82,11.725,48.36,17.545c16.178,5.73,31.099,14.143,52.135,11.813
		c17.346-1.877,38.562-5.637,56.449-9.037c18.426-3.494,36.764-6.176,55.102-10.561c18.787-4.477,32.9-10.295,53.303-12.625
		c0.18,0.271,0.271,0.447,0.359,0.988l2.607,4.119c3.416,2.146,42.428-3.406,46.832-4.031c1.26-7.43-3.775-47.707-5.035-56.928
		c-2.787-19.066-3.324-39.03-5.84-58.812c-10.428-0.178-29.484,2.865-41.439,3.852C727.174,459.234,732.299,459.773,729.15,466.039
		L729.15,466.039z"/>
	<path fill-rule="evenodd" clip-rule="evenodd" fill="#333333" d="M381.915,359.788c20.044,7.788,17.167-21.571,17.167,56.392
		c0,14.412-1.706,44.578,0.542,57.111l17.345,5.819c1.531-29.274,0.183-62.035,0.183-91.484c0-44.397-4.946-35.357,14.021-54.155
		c4.763-4.654,7.821-7.876,11.864-11.905c7.913-7.697,15.104-15.039,22.743-22.646c8.989-8.951,15.101-15.217,23.01-23.363
		l34.519-34.641c4.313-4.117,7.551-8.593,12.314-11.726c5.932,3.311,25.259,24.257,31.011,29.986
		c10.428,10.383,19.686,20.408,30.203,30.613c10.699,10.472,19.416,19.603,30.291,30.522c5.486,5.461,9.979,10.026,15.373,15.577
		c12.492,12.532,11.863,9.129,11.863,19.602v88.706l18.158,0.357l0.092-83.424l17.707-0.177
		c1.887-14.681-0.449-14.055-12.855-26.496c-6.471-6.445-13.752-13.785-20.402-20.23c-14.023-13.605-25.529-26.674-40.271-40.728
		c-9.799-9.398-74.427-75.996-81.169-80.739c-23.819,20.855-91.956,92.644-120.089,120.483
		c-7.012,6.982-13.215,13.248-20.315,20.229C384.881,343.409,377.958,347.525,381.915,359.788L381.915,359.788z"/>
	<path fill-rule="evenodd" clip-rule="evenodd" fill="#333333" d="M554.499,475.887c27.686,0.445,40.358-7.254,59.417-18.533
		l0.268-81.275l-59.594-0.447L554.499,475.887z"/>
	<path fill-rule="evenodd" clip-rule="evenodd" fill="#333333" d="M457.332,434.531l59.686,0.268l0.18-58.541
		c-5.665-1.343-53.845-1.343-59.865-0.089V434.531z"/>
	<path fill-rule="evenodd" clip-rule="evenodd" fill="#231D1F" d="M776.973,278.422c-1.619-6.533-7.73-7.966-11.418-12.711
		c-2.695-3.58-4.135-12.709-3.324-18.707c0.449-4.027-5.574-34.819-7.459-39.922l-10.521,51.56l-51.234,10.742
		c3.955,2.953,7.102,2.594,12.766,3.669l37.123,8.146c2.336,1.253,10.336,45.65,11.596,51.47l10.967-51.292L776.973,278.422z"/>
	<path fill-rule="evenodd" clip-rule="evenodd" fill="#231D1F" d="M415.354,286.3c2.516-0.896,50.517-48.247,51.865-51.828
		l-51.597-0.178L415.354,286.3z"/>
	<path fill-rule="evenodd" clip-rule="evenodd" fill="#231D1F" d="M346.5,522.069c4.043,4.207,64.179,35.09,71.011,38.943
		c12.402,7.16,23.999,12.797,38.202,16.738c11.146,3.041,32.809,11.096,43.146,12.172c-4.046-3.76-34.519-13.16-42.337-16.379
		c-15.192-6.09-24.631-12.979-38.293-21.398l-54.112-34.281c-2.607-1.613-6.382-4.742-9.799-4.119
		C350.904,514.286,347.667,518.405,346.5,522.069L346.5,522.069z"/>
	<path fill-rule="evenodd" clip-rule="evenodd" fill="#231D1F" d="M651.398,194.73c-6.471,1.074-20.225,3.311-25.889,5.28
		c7.73,3.223,19.326,2.238,25.979,6.713l4.494,22.199c5.932-6.355,3.416-16.738,7.463-23.273l25.615-5.37l-26.516-5.639
		c-1.527-8.235-2.158-18.708-6.111-24.706L651.398,194.73z"/>
	<path fill-rule="evenodd" clip-rule="evenodd" fill="#231D1F" d="M749.018,131.176l-25.078,5.37l5.932,2.06
		c22.473,5.192,19.414-2.06,24.449,29.359l6.111-25.241c4.492-1.253,7.73-1.97,12.494-2.866c2.156-0.447,4.225-0.716,6.383-1.073
		l4.764-1.343c0.271-0.089,0.629-0.357,0.809-0.447c0.271-0.089,0.631-0.269,0.9-0.449l-25.621-5.727l-5.121-25.959L749.018,131.176
		z"/>
	<path fill-rule="evenodd" clip-rule="evenodd" fill="#454243" stroke="#333333" stroke-width="0.2221" stroke-miterlimit="10" d="
		M776.973,278.422c5.752-1.343,35.145-5.28,39.82-8.952c-8.359-2.774-16.633-3.133-26.248-4.923
		c-7.551-1.521-16.898-3.937-25.258-5.817c-0.449-4.386-0.449-8.235-3.057-11.727c-0.811,5.998,0.629,15.127,3.324,18.707
		C769.242,270.456,775.354,271.889,776.973,278.422L776.973,278.422z"/>
</g>
</svg>
