<?xml version="1.0" encoding="utf-8"?>
<!-- Generator: Adobe Illustrator 16.0.0, SVG Export Plug-In . SVG Version: 6.00 Build 0)  -->
<!DOCTYPE svg PUBLIC "-//W3C//DTD SVG 1.1//EN" "http://www.w3.org/Graphics/SVG/1.1/DTD/svg11.dtd">
<svg version="1.1" id="Layer_1" xmlns="http://www.w3.org/2000/svg" xmlns:xlink="http://www.w3.org/1999/xlink" x="0px" y="0px"
	 width="1190.55px" height="841.89px" viewBox="0 0 1190.55 841.89" enable-background="new 0 0 1190.55 841.89"
	 xml:space="preserve">
<g>
	<path fill-rule="evenodd" clip-rule="evenodd" fill="#333333" d="M790.692,418.791c-20.092,27.796-115.508,51.155-160.643,52.732
		c-46.223,1.576-139.264-14.982-162.127-51.253c-16.035-20.6,10.195-29.668,27.912-36.567c14.749-5.816,42.362-17.053,57.309-17.053
		c18.509-17.543,47.708-10.644,48.401-41.2c-8.709-17.051-32.565-25.231-55.429-27.598c-24.547-2.563-51.073,4.632-71.958,10.25
		l-139.659,43.96c-27.517,13.896-43.155,5.52-57.408-15.869c-12.175-18.334-20.489-38.637-28.902-61.999
		c-8.81,36.075,32.762,114.828,54.537,145.285c48.797,67.813,113.628,125.571,201.125,143.215
		C740.904,610.5,880.465,410.905,866.51,396.221C841.072,384.588,811.082,415.144,790.692,418.791L790.692,418.791z"/>
	<path fill-rule="evenodd" clip-rule="evenodd" fill="#EBEBEB" d="M474.158,308.103c20.884-5.619,47.411-12.813,71.958-10.25
		c22.864,2.366,46.719,10.547,55.429,27.598c-0.693,30.556-29.892,23.656-48.401,41.2c24.051,8.279,18.312,9.659,42.165-4.14
		c16.332-9.462,25.537-15.474,39.393-26.71c62.061-50.465,78.987-135.23,24.943-171.501c-34.643-23.263-73.838-0.396-86.013,22.274
		c-6.929-3.252-63.446-65.938-110.163-4.14C427.34,230.237,473.267,296.079,474.158,308.103L474.158,308.103z"/>
	<path fill-rule="evenodd" clip-rule="evenodd" fill="#B3B4B4" d="M467.922,420.27c22.864,36.271,115.904,52.83,162.127,51.253
		c45.135-1.577,140.551-24.937,160.643-52.732c0.197-4.83,25.735-25.824,22.369-43.763c-2.476-13.305-22.269-29.077-46.223-4.83
		c-12.77,12.913-24.645,26.317-36.721,37.751c-8.91,8.378-29.893,28.189-44.442,31.441c10.296-14.39,51.072-57.167,48.004-82.4
		c-24.347-30.554-44.738-1.971-57.506,14.392c-49.291,62.981-44.342,69.685-126.694,63.671
		C517.411,432.788,496.13,425.493,467.922,420.27L467.922,420.27z"/>
	<path fill-rule="evenodd" clip-rule="evenodd" fill="#B3B4B4" d="M334.499,352.063c-13.957-14.194-39.592-32.427-63.94-58.054
		l-22.37-19.813c8.413,23.361,16.727,43.665,28.902,61.999C291.344,357.583,306.982,365.96,334.499,352.063L334.499,352.063z"/>
</g>
</svg>
