<?xml version="1.0" encoding="utf-8"?>
<!-- Generator: Adobe Illustrator 16.0.0, SVG Export Plug-In . SVG Version: 6.00 Build 0)  -->
<!DOCTYPE svg PUBLIC "-//W3C//DTD SVG 1.1//EN" "http://www.w3.org/Graphics/SVG/1.1/DTD/svg11.dtd">
<svg version="1.1" id="Layer_1" xmlns="http://www.w3.org/2000/svg" xmlns:xlink="http://www.w3.org/1999/xlink" x="0px" y="0px"
	 width="1190.55px" height="841.89px" viewBox="0 0 1190.55 841.89" enable-background="new 0 0 1190.55 841.89"
	 xml:space="preserve">
<g>
	<path fill-rule="evenodd" clip-rule="evenodd" fill="#333333" d="M527.884,197.722c-11.475,5.088-18.952,3.276-24.655,14.29
		c-1.553,3.136-22.876,66.216-22.505,71.443c0.517,8.018,3.182,4.183,8.291,8.018c4.295-12.896-1.185-18.96,11.252-31.298
		c-4.958,35.757-1.997,63.848-5.996,87.896l20.433-0.279c1.704,9.339,5.627,14.637,7.331,23c3.405,17.288-2.666,14.081-5.923,23.979
		c3.924,1.324,11.918,2.3,16.213,0.279c8.81-4.254-1.48-0.559,6.291-6.902l3.776-2.16c0.298-0.14,0.962-0.28,1.408-0.559
		c-0.446-9.479-3.109-8.295-1.26-19.654c1.037-6.274,2.961-12.686,4.074-19.38l4.959-1.323c0.519-0.209,1.112-0.488,1.556-0.697
		c0.519-0.208,1.258-0.627,1.629-0.767c0.443-0.208,1.185-0.557,1.704-0.905c-3.926-16.939,2.739-33.458,4.81-50.255
		c2.371-19.727-5.256-33.737-3.848-52.138c7.033,8.922,8.587,17.913,10.957,24.256c9.847-0.417,5.848-2.648,10.734-6.899
		c10.218,4.32,14.732-3.835,23.617-9.829c5.404-3.624,2.666-0.208,7.328-5.02c2.813,16.381,1.112,9.898,8.813,16.241
		c-7.847,15.753,7.254,68.1,7.254,91.102l2.147,44.538c2.074,3.207,2.074-0.349,8.07,12.129c8.366,0.139,13.548,0.557,20.285-2.091
		l0.442-2.648c0-0.28,0.076-0.976,0.076-1.324l-4.738-52.278c0.52-12.198,7.775-45.864,12.364-58.966
		c4.887-13.941,5.106-26.279,5.553-42.171l4.663,6.762c2.739,5.088,1.776,1.881,2.518,8.643c1.186,10.455-0.074,12.826-2.222,22.165
		c-2.516,10.945,4.37,11.989,7.847,37.709c1.927,14.149,8.664,74.022,12.44,83.085c3.258-3.207,1.629,0.696,2.146-5.367
		l-15.177-105.249l10.588-4.392c-4.813-8.086-8.664,4.183-4.294-11.57c7.699-28.09,8.586-23.143-3.257-44.052
		c-15.104-26.626-16.809-32.761-40.868-37.849c0.146-8.851,0.074-19.308-8.885-21.677c-16.362-4.322-12.809,6.691-21.396,12.478
		c2.295,7.944,1.629,2.928,2.516,5.644c1.185,3.486,1.185,0.976,1.408,5.926c-7.995,5.507-7.403,2.091-13.327,9.479
		c-4.811,6.063-4.662,8.015-7.624,14.917l-20.288,24.953c-3.477-5.088-8.291-23.072-9.771-30.739
		c-2.518-12.754-11.623-15.405-23.838-18.193c2.443-6.691,9.401-3.692,8.958-17.217c-0.296-8.432-4.147-12.894-12.884-13.173
		C526.18,169.284,517.223,180.158,527.884,197.722L527.884,197.722z"/>
	<path fill-rule="evenodd" clip-rule="evenodd" fill="#333333" d="M754.8,383.477c13.77,5.926-10.438,31.577-19.767,42.868
		l-35.388,38.754c5.699-19.517,55.969-59.594,54.71-77.23c-24.358-5.087-43.235,17.984-52.935,29.206
		c-25.541,29.555-25.246,9.759-59.968,23.42c-18.508,7.25-36.35,22.724-44.717,37.71c-8.07,14.497-11.032,55.69-6.96,73.884
		l63.596,0.906c9.105-26.626-20.137-30.529,58.635-72.004c7.257-3.831,24.209-11.222,28.727-17.703l29.837-59.106
		c7.256-13.593,3.108-52.067,1.999-71.027c-0.371-6.762,2.147-5.646-2.295-7.179c-10.662,0.417-12.736,12.686-14.142,23.768
		c-0.591,5.019-0.223,10.455-1.405,16.241C752.948,374.974,748.729,377.345,754.8,383.477L754.8,383.477z"/>
	<path fill-rule="evenodd" clip-rule="evenodd" fill="#333333" d="M511.966,521.905c5.109,4.184,2.738,22.793,3.109,29.766
		l63.744-0.839v-52.903c-2.147-30.391-39.756-59.525-73.443-63.01c-14.956-1.535-17.767,1.741-28.057-7.599
		c-7.479-6.831-10.664-11.918-16.584-17.773c-13.55-13.384-26.579-25.511-41.091-22.236c-21.838,5.02,41.387,53.323,49.234,76.603
		l-17.398-19.656c-18.952-20.352-16.657-16.449-34.131-40.288c-6.587-8.991-14.287-15.613-0.072-21.258
		c-2.295-12.477-3.405-24.395-5.185-36.176c-1.628-10.594-1.776-20.213-13.843-20.561c-2.591,4.531-5.109,64.752-2.814,72.071
		c2.147,6.691,9.995,19.656,13.55,26.627c24.652,48.163,11.252,36.383,58.56,62.174
		C483.092,495.349,507.005,507.966,511.966,521.905L511.966,521.905z"/>
	<path fill-rule="evenodd" clip-rule="evenodd" fill="#9A999A" d="M511.966,521.905c0.147,10.386-1.258,22.097,1.776,32.345
		l66.558-0.628c3.481-7.806,3.481-47.468-1.48-55.693v52.903l-63.744,0.839C514.705,544.698,517.075,526.089,511.966,521.905
		L511.966,521.905z"/>
	<path fill-rule="evenodd" clip-rule="evenodd" fill="#161616" d="M421.125,332.386c0.742-7.108,0.148-14.498-1.924-19.656
		c-7.772-1.393-3.109-1.604-7.923,0.488l-2.442,9.062c9.847,12.266,7.922,4.531,10.292,27.882c0,0.349,0.739,5.228,0.739,5.504
		c0.962,4.254,1.11,3.347,2.667,4.603L421.125,332.386z"/>
	<path fill-rule="evenodd" clip-rule="evenodd" fill="#161616" d="M750.876,315.029l-4.071,34.713
		c8.365-6.204,1.333-11.362,6.957-20.701c5.036-8.295,7.404-5.159,3.037-17.705C750.728,310.989,751.542,312.73,750.876,315.029
		L750.876,315.029z"/>
</g>
</svg>
